<svg version="1.1" xmlns="http://www.w3.org/2000/svg" viewBox="0 0 100 60">
  <rect width="100" height="60" rx="8" fill="white"/>
  <path fill="#1A1F71" d="M35.6,41.9l3.5-22.1h5.6l-3.5,22.1H35.6z M59.7,20.3c-1.3-0.5-3.3-1.1-5.7-1.1c-6,0-10.2,3.2-10.2,7.8
	c0,3.4,3,5.3,5.3,6.4c2.4,1.1,3.2,1.9,3.2,2.9c0,1.6-1.9,2.3-3.6,2.3c-2.4,0-3.8-0.4-5.8-1.2l-0.8-0.4l-0.9,5.4
	c1.5,0.7,4.2,1.3,7,1.3c6.4,0,10.5-3.2,10.6-8.1c0-2.7-1.6-4.7-5.2-6.4c-2.1-1.1-3.5-1.8-3.5-3c0-1,1.1-2.1,3.4-2.1
	c2,0,3.4,0.4,4.5,0.9l0.5,0.2L59.7,20.3z M78.1,19.8h-4.3c-1.3,0-2.4,0.4-3,1.7l-8.5,20.4h5.9l1.2-3.2h7.2l0.7,3.2h5.2L78.1,19.8z
	 M71.1,34.1l3-8.2l1.7,8.2H71.1z M28.7,19.8l-5.5,15.1l-0.6-3c-1-3.4-4.2-7.1-7.8-8.9l5,18.9h6l8.9-22.1H28.7z"/>
  <path fill="#F7B600" d="M13.6,19.8h0.1c4.5,0.1,8.3,3,9.7,7.1l-2,10c-0.3,1.4-1.4,2.4-2.8,2.4H8.7L13.6,19.8z"/>
</svg>